<svg xmlns="http://www.w3.org/2000/svg" viewBox="0 0 3 2"><rect width="3" height="2" fill="#de2910"/><g fill="#ffde00"><path d="M.5.35.58.58.82.58.63.73.7.97.5.82.3.97.37.73.18.58.42.58z"/><path d="m1.05.2.1.2.22.03-.16.15.04.22-.2-.1-.2.1.04-.22-.16-.15.22-.03z"/><path d="m1.2.55.1.2.22.03-.16.15.04.22-.2-.1-.2.1.04-.22-.16-.15.22-.03z"/><path d="m1.15.9.1.2.22.03-.16.15.04.22-.2-.1-.2.1.04-.22-.16-.15.22-.03z"/><path d="m.85.9.1.2.22.03-.16.15.04.22-.2-.1-.2.1.04-.22-.16-.15.22-.03z"/></g></svg>
